HIERARCHY
ROOT Hips
{
     OFFSET 1.88212 96.90440 -13.34250
     CHANNELS 6 Xposition Yposition Zposition Zrotation Xrotation Yrotation
     JOINT Spine
     {
          OFFSET 0.00000 11.89050 0.00000
          CHANNELS 3 Zrotation Xrotation Yrotation
          JOINT Spine1
          {
               OFFSET -0.00000 25.65740 0.12766
               CHANNELS 3 Zrotation Xrotation Yrotation
               JOINT HEad
               {
                    OFFSET 0.00000 8.73416 0.01134
                    CHANNELS 3 Zrotation Xrotation Yrotation
                    End Site
                    {
                         OFFSET -0.29000 12.77420 2.51395
                    }
               }
               JOINT LeftShoulder1
               {
                    OFFSET 8.99000 -0.36225 -0.22000
                    CHANNELS 3 Zrotation Xrotation Yrotation
                    JOINT LeftArm
                    {
                         OFFSET 10.28270 -0.00338 0.32212
                         CHANNELS 3 Zrotation Xrotation Yrotation
                         JOINT LeftForeArm
                         {
                              OFFSET 32.76690 0.09914 -1.42434
                              CHANNELS 3 Zrotation Xrotation Yrotation
                              JOINT LeftHand
                              {
                                   OFFSET 27.56430 0.08536 1.02216
                                   CHANNELS 3 Zrotation Xrotation Yrotation
                                   End Site
                                   {
                                        OFFSET 16.74430 -0.60000 1.50291
                                   }
                              }
                         }
                    }
               }
               JOINT RightShoulder
               {
                    OFFSET -8.99000 -0.36225 -0.22000
                    CHANNELS 3 Zrotation Xrotation Yrotation
                    JOINT RightArm
                    {
                         OFFSET -10.28270 -0.00338 0.32212
                         CHANNELS 3 Zrotation Xrotation Yrotation
                         JOINT RightForeArm
                         {
                              OFFSET -32.89710 0.09914 -1.42434
                              CHANNELS 3 Zrotation Xrotation Yrotation
                              JOINT RightHand
                              {
                                   OFFSET -27.49210 0.08536 1.02216
                                   CHANNELS 3 Zrotation Xrotation Yrotation
                                   End Site
                                   {
                                        OFFSET -16.63120 -0.60000 1.50291
                                   }
                              }
                         }
                    }
               }
          }
     }
     JOINT LeftUpLeg
     {
          OFFSET 8.94580 -8.66707 0.10165
          CHANNELS 3 Zrotation Xrotation Yrotation
          JOINT LeftLeg
          {
               OFFSET 0.00000 -44.42270 1.37270
               CHANNELS 3 Zrotation Xrotation Yrotation
               JOINT LeftFoot
               {
                    OFFSET -0.25355 -42.09240 -1.46059
                    CHANNELS 3 Zrotation Xrotation Yrotation
                    JOINT LeftToes
                    {
                         OFFSET -0.04000 -4.41509 8.49910
                         CHANNELS 3 Zrotation Xrotation Yrotation
                         End Site
                         {
                              OFFSET 0.08000 -0.04745 9.77979
                         }
                    }
               }
          }
     }
     JOINT RightUpLeg
     {
          OFFSET -8.94580 -8.66707 0.10165
          CHANNELS 3 Zrotation Xrotation Yrotation
          JOINT RightLeg
          {
               OFFSET 0.00000 -44.42270 1.37270
               CHANNELS 3 Zrotation Xrotation Yrotation
               JOINT RightFoot
               {
                    OFFSET 0.25355 -42.09240 -1.46059
                    CHANNELS 3 Zrotation Xrotation Yrotation
                    JOINT RightToes
                    {
                         OFFSET 0.04000 -4.41509 8.49910
                         CHANNELS 3 Zrotation Xrotation Yrotation
                         End Site
                         {
                              OFFSET -0.08000 -0.13745 9.77979
                         }
                    }
               }
          }
     }
}
MOTION
Frames: 7
Frame Time: 0.01667
-152.87613 91.94262 -201.10892 -15.04397 3.48312 -92.03737 2.10918 2.21304 3.91286 0.00208 -0.00487 0.00909 8.75667 34.03330 27.61045 4.09331 -0.19191 3.59608 -96.15490 -67.73833 -105.29919 -23.02647 34.32726 -83.93459 3.33376 8.41196 0.41141 23.05703 4.03476 12.26896 57.39539 -15.13399 71.10266 16.41614 25.17771 79.06563 -15.61687 4.27638 11.57442 -2.97290 -15.36906 6.09445 16.70199 4.35390 13.26782 -20.05480 -0.02606 -0.08217 6.33507 1.34162 -6.79656 -15.29226 -10.86828 -12.46491 2.83112 57.36856 19.06290 67.92042 -0.40828 0.15715 -52.77452 -26.30364 29.22099 
-150.80939 91.65882 -200.44269 -14.96354 3.44208 -91.08662 2.71419 3.10081 3.73990 0.00299 -0.00389 0.00796 12.88339 35.82850 23.96045 4.57557 -0.72967 3.91581 -95.86520 -68.27898 -104.36212 -23.44397 34.19435 -83.91962 3.46432 8.40103 -0.27273 23.28881 3.50628 12.79556 59.98294 -16.06092 72.23629 16.55490 25.73000 80.64768 -2.59104 10.02297 -2.80372 -3.33005 -14.71179 5.14952 16.79372 1.17802 16.15134 -30.14170 0.03911 0.30256 15.85685 3.12544 -8.07394 -12.98007 -8.94385 -9.57515 1.95032 51.16168 18.23599 80.11929 -0.36901 0.18652 -71.89649 -36.06791 24.00483 
-148.73805 91.47672 -199.73856 -14.90335 3.50183 -90.09678 3.45208 3.88467 3.57955 0.00311 -0.00347 0.00504 16.78854 37.10120 20.53253 5.01812 -1.05796 4.01807 -95.93509 -68.75865 -103.87810 -23.92842 34.14312 -83.98126 3.59733 8.17791 -0.84689 23.46315 3.10560 12.93297 61.98560 -16.68167 73.32160 16.56629 26.44721 81.67899 -9.88313 7.83223 5.19922 -3.51732 -14.12553 4.34186 16.56440 -0.79039 18.04620 -24.38203 -0.02875 -0.09544 9.49971 3.71364 -8.06385 -10.22465 -6.57873 -6.30305 0.22155 44.65504 16.67859 92.41576 -0.32086 0.20642 -79.61747 -29.42772 21.16113 
-146.65460 91.40491 -199.02393 -14.89552 3.68186 -89.07719 4.33784 4.60446 3.40924 0.00346 -0.00235 0.00244 20.37985 37.93924 17.42949 5.38227 -1.14928 3.92346 -96.52985 -69.09876 -103.94030 -24.48591 34.23006 -84.15053 3.79752 7.79001 -1.32841 23.73417 2.90725 12.77140 63.50413 -17.10452 74.32101 16.46342 27.45345 82.29794 -2.66238 10.42665 -2.92822 -3.18284 -14.32900 4.65712 15.66452 -1.45141 18.11479 -25.92898 0.01770 0.00139 10.64207 3.07930 -8.33887 -7.22514 -4.02174 -2.80144 -0.37808 38.67831 13.15416 90.22592 0.03136 -0.00864 -94.63597 -33.82172 -2.49601 
-144.54895 91.43535 -198.29544 -14.96690 3.96402 -88.04147 5.34612 5.29611 3.20762 0.00389 -0.00133 -0.00073 23.59074 38.44421 14.73113 5.64021 -0.99660 3.63567 -97.66270 -69.23579 -104.48978 -25.10687 34.50436 -84.44790 3.97891 7.23937 -1.67664 24.05819 2.90977 12.24153 64.73009 -17.44712 75.28578 16.43392 28.49997 82.99115 -7.56243 9.05255 2.28712 -2.31624 -15.38175 5.89325 12.92807 0.83553 16.72922 -22.51578 -0.06275 0.03440 7.75722 0.13749 -8.89632 -4.84273 -1.93588 0.17325 -2.28330 33.49312 10.58299 88.90249 0.03327 -0.00787 -82.42702 -28.81632 6.21609 
-142.42369 91.54773 -197.53952 -15.14145 4.31413 -86.99821 6.43686 5.99657 2.95118 0.00432 0.00017 -0.00330 26.38952 38.71120 12.47866 5.80071 -0.63571 3.17255 -99.15184 -69.10327 -105.28505 -25.77896 34.98909 -84.86974 4.17977 6.63789 -1.93102 24.52917 3.09681 11.46210 65.63811 -17.75269 76.07033 16.42528 29.69263 83.68475 -3.47231 10.40783 -2.65603 -0.90074 -17.28490 7.87193 9.61361 5.55670 14.35245 -20.53065 -0.06207 0.04386 6.50974 -4.16270 -9.59337 -3.02943 -0.46388 2.69618 -3.30153 30.74611 6.84275 86.63927 0.03038 0.02095 -83.10669 -28.90022 1.16353 
-140.34932 91.69956 -196.74132 -15.45150 4.70753 -85.97550 7.58031 6.74187 2.63443 0.00474 0.00116 -0.00613 28.77716 38.83604 10.67778 5.93791 -0.12100 2.55356 -100.73920 -68.72176 -106.08488 -31.87599 37.70412 -84.04655 6.67232 10.26686 -0.49251 25.11298 3.39649 10.41499 66.25640 -18.05954 76.62477 16.50769 30.82464 84.56475 -6.60111 9.62967 0.36107 0.71770 -19.20578 9.79139 6.47170 11.58277 12.18439 -18.50107 -0.03794 0.07839 5.26658 -9.10710 -10.32125 -1.77316 0.37284 4.84298 -3.14539 29.61450 2.20953 83.47887 0.01682 0.04795 -76.88853 -27.82397 4.61244 
